%TF.GenerationSoftware,KiCad,Pcbnew,9.0.4*%
%TF.CreationDate,2025-09-18T00:08:17-03:00*%
%TF.ProjectId,KalyPCB,4b616c79-5043-4422-9e6b-696361645f70,v1.0.0*%
%TF.SameCoordinates,Original*%
%TF.FileFunction,Profile,NP*%
%FSLAX46Y46*%
G04 Gerber Fmt 4.6, Leading zero omitted, Abs format (unit mm)*
G04 Created by KiCad (PCBNEW 9.0.4) date 2025-09-18 00:08:17*
%MOMM*%
%LPD*%
G01*
G04 APERTURE LIST*
%TA.AperFunction,Profile*%
%ADD10C,0.150000*%
%TD*%
G04 APERTURE END LIST*
D10*
X83500000Y-13240000D02*
X68500000Y-13240000D01*
X108181571Y-91991886D02*
X123461902Y-101540097D01*
X67000000Y-14740000D02*
G75*
G02*
X68500000Y-13240000I1500000J0D01*
G01*
X48999354Y-29069354D02*
G75*
G02*
X47499354Y-30569354I-1500054J54D01*
G01*
X14510000Y-81570000D02*
X48793641Y-81570000D01*
X104490646Y-20859354D02*
G75*
G02*
X102990646Y-19359354I54J1500054D01*
G01*
X101500004Y-18002730D02*
G75*
G02*
X102990650Y-19359354I-4J-1497270D01*
G01*
X65499354Y-17999354D02*
X50500000Y-18000000D01*
X138439369Y-38910000D02*
X131099900Y-38910000D01*
X148571022Y-99860000D02*
X148580000Y-99860000D01*
X139939369Y-37410000D02*
G75*
G02*
X138439369Y-38909969I-1500069J100D01*
G01*
X129600000Y-37410000D02*
G75*
G02*
X131100000Y-35910000I1500100J-100D01*
G01*
X83289550Y-84780180D02*
X98669466Y-88901216D01*
X148580000Y-99860000D02*
X148580000Y-22360000D01*
X48999354Y-29069354D02*
X49000000Y-19500000D01*
X131099900Y-38910000D02*
G75*
G02*
X129599900Y-37410000I100J1500100D01*
G01*
X98669466Y-88901216D02*
X108181571Y-91991886D01*
X137044003Y-112570933D02*
G75*
G02*
X134923012Y-112607950I-1079003J1041933D01*
G01*
X86500646Y-17999354D02*
X101500004Y-18002730D01*
X63363580Y-82333578D02*
X83289550Y-84780180D01*
X148571022Y-99860000D02*
G75*
G02*
X148158557Y-101061516I-1491622J-159500D01*
G01*
X49000000Y-19500000D02*
G75*
G02*
X50500000Y-18000000I1500050J-50D01*
G01*
X131100000Y-35910000D02*
X138439469Y-35910000D01*
X147080000Y-20860000D02*
X104490646Y-20859354D01*
X47499354Y-30569354D02*
X14500000Y-30570000D01*
X86500646Y-17999354D02*
G75*
G02*
X85000646Y-16499354I54J1500054D01*
G01*
X137044003Y-112570934D02*
X148158537Y-101061497D01*
X14510000Y-81570000D02*
G75*
G02*
X13010000Y-80070000I50J1500050D01*
G01*
X85000000Y-14740000D02*
X85000646Y-16499354D01*
X83500000Y-13240000D02*
G75*
G02*
X85000000Y-14740000I0J-1500000D01*
G01*
X13010000Y-80070000D02*
X13000000Y-32070000D01*
X147080000Y-20860000D02*
G75*
G02*
X148580000Y-22360000I-100J-1500100D01*
G01*
X13000000Y-32070000D02*
G75*
G02*
X14500000Y-30570000I1500050J-50D01*
G01*
X138439469Y-35910000D02*
G75*
G02*
X139939500Y-37410000I-69J-1500100D01*
G01*
X123461902Y-101540097D02*
X134923006Y-112607956D01*
X66999354Y-16499354D02*
G75*
G02*
X65499354Y-17999354I-1500054J54D01*
G01*
X67000000Y-14740000D02*
X66999354Y-16499354D01*
X48793641Y-81570000D02*
X63363580Y-82333578D01*
M02*
